<?xml version="1.0" standalone="no"?>
<!DOCTYPE svg PUBLIC "-//W3C//DTD SVG 20010904//EN"
 "http://www.w3.org/TR/2001/REC-SVG-20010904/DTD/svg10.dtd">
<svg version="1.0" xmlns="http://www.w3.org/2000/svg"
 width="1024.000000pt" height="1024.000000pt" viewBox="0 0 1024.000000 1024.000000"
 preserveAspectRatio="xMidYMid meet">
<metadata>
Created by potrace 1.11, written by Peter Selinger 2001-2013
</metadata>
<g transform="translate(0.000000,1024.000000) scale(0.100000,-0.100000)"
fill="#000000" stroke="none">
<path d="M0 5120 l0 -5120 5120 0 5120 0 0 5120 0 5120 -5120 0 -5120 0 0
-5120z m6805 4289 c423 -49 758 -216 879 -438 45 -83 56 -142 56 -289 0 -291
-71 -730 -210 -1297 -528 -2162 -1500 -4314 -2532 -5607 -179 -225 -315 -377
-497 -558 -483 -480 -939 -763 -1369 -850 -136 -27 -331 -37 -403 -20 -138 32
-219 107 -219 200 0 86 46 132 196 199 346 153 589 327 900 643 524 531 1000
1255 1524 2316 622 1257 1113 2599 1450 3962 100 406 148 680 157 902 9 219 0
230 -156 209 -337 -47 -751 -304 -1222 -757 -82 -79 -166 -152 -187 -163 -53
-26 -119 -33 -198 -21 -182 29 -440 226 -483 371 -15 51 -14 155 4 212 67 220
323 447 730 647 346 169 748 301 1055 346 104 15 365 11 525 -7z"/>
</g>
</svg>
